<?xml version="1.0" encoding="utf-8"?>
<!-- Generator: Adobe Illustrator 16.0.0, SVG Export Plug-In . SVG Version: 6.00 Build 0)  -->
<!DOCTYPE svg PUBLIC "-//W3C//DTD SVG 1.1//EN" "http://www.w3.org/Graphics/SVG/1.1/DTD/svg11.dtd">
<svg version="1.1" id="Layer_1" xmlns="http://www.w3.org/2000/svg" xmlns:xlink="http://www.w3.org/1999/xlink" x="0px" y="0px"
	 width="100px" height="100px" viewBox="0 0 100 100" enable-background="new 0 0 100 100" xml:space="preserve">
<g>
	<path fill="#DE4173" d="M49.721,75.793c-0.42-0.21-0.67-0.524-0.723-0.855c-0.517,0.393-0.608,0.914,0.193,1.33v0.002
		c0.012,0.006,0.024,0.012,0.037,0.019c0.972,0.488,2.351,0.64,3.331,0.023c0.023-0.015,0.046-0.029,0.068-0.044
		c0.72-0.473,0.783-0.854,0.357-1.224c-0.068,0.238-0.246,0.468-0.544,0.655C51.713,76.157,50.514,76.191,49.721,75.793z"/>
	<path fill="#DE4173" d="M57.802,70.801c-0.419-0.211-0.67-0.525-0.724-0.855c-0.524,0.398-0.609,0.928,0.23,1.35
		c0.258,0.129,0.544,0.234,0.844,0.309l0,0c0.602,0.148,1.258,0.17,1.848,0v-0.001c0.226-0.066,0.441-0.159,0.64-0.285
		c0.784-0.493,0.864-0.886,0.426-1.269c-0.068,0.239-0.247,0.469-0.544,0.656C59.794,71.164,58.596,71.199,57.802,70.801z"/>
	<path fill="#DE4173" d="M33.231,71.605c-0.672,0.274-1.573,0.276-2.247,0h-0.001c-0.052-0.021-0.103-0.044-0.152-0.068
		c-0.42-0.211-0.67-0.525-0.723-0.855c-0.359,0.272-0.512,0.606-0.304,0.924v0.002c0.096,0.146,0.269,0.291,0.535,0.424
		c0.973,0.489,2.351,0.64,3.332,0.023c0.253-0.16,0.433-0.309,0.545-0.449l0,0c0.236-0.297,0.177-0.561-0.12-0.818
		c-0.068,0.238-0.246,0.469-0.544,0.656C33.453,71.505,33.346,71.559,33.231,71.605z"/>
	<path fill="#DE4173" d="M22.75,76.529c-0.148-0.074-0.275-0.161-0.38-0.26h-0.002c-0.191-0.176-0.307-0.383-0.341-0.596
		c-0.237,0.18-0.384,0.387-0.398,0.596v0.002c-0.016,0.258,0.167,0.521,0.627,0.753c0.973,0.489,2.352,0.64,3.332,0.023
		c0.456-0.286,0.673-0.538,0.69-0.776l0,0c0-0.001,0-0.001,0-0.002l0,0c0.011-0.169-0.082-0.33-0.264-0.489
		c-0.049,0.171-0.154,0.337-0.32,0.487h-0.001c-0.065,0.059-0.139,0.115-0.223,0.168C24.743,76.895,23.544,76.928,22.75,76.529z"/>
	<path fill="#DE4173" d="M35.063,80.449c1.125-0.708-1.115-1.523-2.263-0.801C31.675,80.355,33.915,81.172,35.063,80.449z"/>
	<path fill="#DE4173" d="M39.103,77.953c1.125-0.709-1.115-1.523-2.262-0.802C35.715,77.859,37.955,78.676,39.103,77.953z"/>
	<path fill="#DE4173" d="M48.093,77.708c1.125-0.708-1.115-1.523-2.262-0.802C44.706,77.614,46.945,78.43,48.093,77.708z"/>
	<path fill="#DE4173" d="M45.68,78.289c-0.419-0.211-0.67-0.524-0.722-0.855c-0.525,0.398-0.61,0.929,0.229,1.35
		c0.973,0.489,2.352,0.641,3.332,0.023c0.783-0.492,0.865-0.885,0.426-1.268c-0.069,0.239-0.247,0.469-0.544,0.656
		C47.673,78.654,46.474,78.688,45.68,78.289z"/>
	<path fill="#DE4173" d="M27.7,78.781c-0.419-0.211-0.67-0.525-0.723-0.855c-0.525,0.398-0.61,0.928,0.23,1.349
		c0.973,0.489,2.352,0.64,3.331,0.023c0.784-0.493,0.865-0.886,0.426-1.268c-0.069,0.239-0.247,0.468-0.544,0.655
		C29.693,79.145,28.494,79.179,27.7,78.781z"/>
	<path fill="#DE4173" d="M37.599,83.283c-0.42-0.211-0.67-0.525-0.723-0.855c-0.525,0.397-0.61,0.928,0.23,1.35
		c0.973,0.488,2.352,0.64,3.332,0.023c0.784-0.493,0.865-0.887,0.426-1.27c-0.068,0.24-0.247,0.469-0.544,0.656
		C39.592,83.646,38.393,83.682,37.599,83.283z"/>
	<path fill="#DE4173" d="M41.639,80.787c-0.419-0.211-0.67-0.525-0.722-0.856c-0.525,0.399-0.61,0.929,0.229,1.351
		c0.974,0.488,2.352,0.641,3.332,0.022c0.783-0.492,0.865-0.886,0.426-1.268c-0.068,0.238-0.247,0.468-0.544,0.655
		C43.633,81.15,42.433,81.185,41.639,80.787z"/>
	<path fill="#DE4173" d="M40.012,82.701c1.125-0.709-1.115-1.524-2.263-0.802C36.624,82.607,38.864,83.423,40.012,82.701z"/>
	<path fill="#DE4173" d="M32.65,81.031c-0.42-0.21-0.67-0.524-0.723-0.855c-0.525,0.398-0.61,0.929,0.23,1.351
		c0.973,0.488,2.351,0.64,3.331,0.022c0.784-0.492,0.864-0.886,0.426-1.268c-0.069,0.238-0.247,0.469-0.544,0.656
		C34.642,81.396,33.443,81.431,32.65,81.031z"/>
	<path fill="#DE4173" d="M44.053,80.204c1.125-0.708-1.114-1.524-2.263-0.801C40.665,80.111,42.905,80.927,44.053,80.204z"/>
	<path fill="#DE4173" d="M36.69,78.535c-0.42-0.211-0.67-0.525-0.724-0.855c-0.525,0.398-0.61,0.929,0.23,1.35
		c0.973,0.488,2.352,0.641,3.332,0.023c0.784-0.493,0.865-0.886,0.426-1.268c-0.068,0.238-0.247,0.468-0.544,0.655
		C38.682,78.898,37.483,78.934,36.69,78.535z"/>
	<path fill="#DE4173" d="M30.113,78.199c1.125-0.709-1.114-1.524-2.263-0.802C26.725,78.105,28.965,78.92,30.113,78.199z"/>
	<path fill="#DE4173" d="M29.204,73.451c1.125-0.709-1.114-1.523-2.262-0.802C25.816,73.357,28.056,74.173,29.204,73.451z"/>
	<path fill="#DE4173" d="M56.174,72.715c1.125-0.709-1.115-1.524-2.262-0.801C52.786,72.621,55.027,73.438,56.174,72.715z"/>
	<path fill="#DE4173" d="M53.762,73.297c-0.42-0.211-0.67-0.525-0.723-0.855c-0.525,0.398-0.61,0.929,0.229,1.351
		c0.973,0.487,2.352,0.64,3.332,0.022c0.783-0.493,0.863-0.886,0.426-1.268c-0.068,0.238-0.246,0.468-0.545,0.654
		C55.754,73.66,54.555,73.695,53.762,73.297z"/>
	<path fill="#DE4173" d="M35.781,73.787c-0.42-0.21-0.67-0.524-0.723-0.854c-0.525,0.397-0.61,0.928,0.229,1.35
		c0.973,0.488,2.352,0.64,3.332,0.022c0.784-0.492,0.865-0.885,0.426-1.268c-0.068,0.238-0.246,0.469-0.544,0.655
		C37.773,74.151,36.575,74.186,35.781,73.787z"/>
	<path fill="#DE4173" d="M34.154,75.702c1.125-0.708-1.115-1.524-2.263-0.802C30.765,75.608,33.006,76.425,34.154,75.702z"/>
	<path fill="#DE4173" d="M47.184,72.96c1.125-0.708-1.114-1.524-2.262-0.802C43.796,72.866,46.036,73.683,47.184,72.96z"/>
	<path fill="#DE4173" d="M43.144,75.457c1.125-0.709-1.114-1.524-2.263-0.803C39.755,75.363,41.996,76.18,43.144,75.457z"/>
	<path fill="#DE4173" d="M44.771,73.542c-0.419-0.211-0.67-0.524-0.723-0.854c-0.524,0.397-0.61,0.928,0.23,1.35
		c0.973,0.488,2.351,0.64,3.332,0.022c0.784-0.493,0.864-0.886,0.426-1.268c-0.068,0.239-0.247,0.468-0.544,0.655
		C46.764,73.906,45.565,73.94,44.771,73.542z"/>
	<path fill="#DE4173" d="M42.578,76.267h-0.009c-0.36,0.062-0.745,0.065-1.106,0.002h-0.006c-0.26-0.044-0.509-0.12-0.726-0.229
		c-0.42-0.211-0.67-0.524-0.724-0.855c-0.419,0.318-0.558,0.721-0.167,1.085l0,0c0.098,0.092,0.229,0.181,0.398,0.265
		c0.973,0.488,2.351,0.641,3.331,0.023c0.159-0.1,0.29-0.197,0.392-0.289l0,0c0.403-0.363,0.383-0.674,0.034-0.979
		c-0.068,0.239-0.247,0.469-0.544,0.656C43.203,76.101,42.9,76.207,42.578,76.267z"/>
	<path fill="#DE4173" d="M26.791,74.033c-0.419-0.211-0.67-0.525-0.723-0.855c-0.524,0.398-0.61,0.928,0.23,1.35
		c0.973,0.488,2.352,0.64,3.332,0.023c0.784-0.493,0.864-0.887,0.426-1.268c-0.068,0.238-0.246,0.468-0.544,0.654
		C28.784,74.396,27.584,74.432,26.791,74.033z"/>
	<path fill="#DE4173" d="M64.754,72.424l-6.104,3.844l-3.747,2.358l8.961,4.739c0.11,0.058,0.186,0.09,0.304,0.104l0.132-0.066
		l9.658-6.102l-1.945-1.034l-6.996-3.716C65.003,72.543,64.797,72.438,64.754,72.424z"/>
	<path fill="#DE4173" d="M38.194,73.205c1.125-0.709-1.115-1.523-2.263-0.801C34.806,73.111,37.046,73.928,38.194,73.205z"/>
	<path fill="#DE4173" d="M47.46,71.605l-0.068,0.002c0.082,0.043,0.157,0.093,0.224,0.145C47.56,71.704,47.508,71.654,47.46,71.605z
		"/>
	<path fill="#DE4173" d="M52.134,75.211c1.125-0.708-1.114-1.523-2.263-0.802C48.746,75.117,50.986,75.934,52.134,75.211z"/>
	<path fill="#DE4173" d="M25.163,75.947c1.125-0.708-1.115-1.523-2.263-0.801C21.775,75.854,24.015,76.67,25.163,75.947z"/>
	<path fill="#DE4173" d="M39.821,71.291c-0.419-0.211-0.67-0.525-0.723-0.855c-0.452,0.345-0.578,0.785-0.067,1.17h0
		c0.082,0.061,0.181,0.121,0.297,0.18c0.973,0.489,2.352,0.64,3.332,0.023c0.109-0.068,0.205-0.135,0.287-0.201h0.002
		c0.507-0.402,0.514-0.738,0.137-1.066c-0.068,0.238-0.247,0.468-0.544,0.655C41.813,71.655,40.615,71.689,39.821,71.291z"/>
	<path fill="#DE4173" d="M52.852,68.549c-0.42-0.211-0.67-0.524-0.723-0.854c-0.524,0.398-0.609,0.929,0.229,1.35
		c0.974,0.489,2.352,0.64,3.331,0.022c0.785-0.492,0.865-0.885,0.426-1.268c-0.068,0.239-0.246,0.469-0.544,0.656
		C54.844,68.912,53.646,68.947,52.852,68.549z"/>
	<path fill="#DE4173" d="M48.811,71.046c-0.419-0.211-0.67-0.524-0.723-0.855c-0.525,0.398-0.61,0.929,0.23,1.35
		c0.045,0.022,0.091,0.044,0.137,0.065v0.001c0.938,0.423,2.193,0.539,3.121,0h0.005c0.022-0.015,0.047-0.028,0.069-0.042
		c0.783-0.493,0.864-0.887,0.426-1.269c-0.068,0.239-0.246,0.469-0.545,0.655C50.805,71.409,49.605,71.443,48.811,71.046z"/>
	<path fill="#DE4173" d="M51.225,70.463c1.125-0.707-1.115-1.523-2.263-0.801C47.837,70.371,50.077,71.187,51.225,70.463z"/>
	<path fill="#DE4173" d="M54.355,63.219c1.126-0.707-1.113-1.522-2.262-0.801C50.969,63.127,53.208,63.941,54.355,63.219z"/>
	<path fill="#DE4173" d="M55.983,61.305c-0.42-0.211-0.67-0.524-0.724-0.854c-0.524,0.397-0.609,0.927,0.23,1.35
		c0.973,0.488,2.352,0.64,3.331,0.022c0.784-0.492,0.864-0.886,0.426-1.268c-0.069,0.238-0.247,0.469-0.544,0.655
		C57.977,61.669,56.776,61.703,55.983,61.305z"/>
	<path fill="#DE4173" d="M59.531,59.303c0.973,0.488,2.352,0.641,3.331,0.023c0.784-0.492,0.865-0.886,0.426-1.267
		c-0.068,0.237-0.247,0.468-0.544,0.654c-0.727,0.458-1.928,0.493-2.721,0.095c-0.419-0.211-0.67-0.525-0.723-0.855
		C58.776,58.352,58.691,58.882,59.531,59.303z"/>
	<path fill="#DE4173" d="M58.396,60.723c1.125-0.707-1.113-1.523-2.262-0.801C55.009,60.629,57.248,61.445,58.396,60.723z"/>
	<path fill="#DE4173" d="M62.438,58.227c1.125-0.708-1.115-1.523-2.263-0.802C59.05,58.133,61.289,58.949,62.438,58.227z"/>
	<path fill="#DE4173" d="M42.234,70.709c1.125-0.708-1.114-1.523-2.263-0.801C38.846,70.615,41.086,71.432,42.234,70.709z"/>
	<path fill="#DE4173" d="M52.408,8.115l-0.191,0.117c0.859,0.026,0.81,0.675,0.817,2.001v32.132c0,1.128-0.733,2.519-1.617,3.085
		L17.34,67.322c-1.158,0.686-1.15,0.711-1.554,0.748c0.042,0.057,0.093,0.109,0.154,0.154l0.058,0.029l0.05,0.012
		c0.123,0.056,0.274,0.037,0.441-0.021c0.08-0.035,1.22-0.703,1.22-0.703l33.915-21.768c1.001-0.642,1.794-2.16,1.794-3.409V10.233
		c0-0.899,0.008-1.415-0.085-1.724C53.064,7.783,52.408,8.115,52.408,8.115z"/>
	<path fill="#DE4173" d="M46.275,68.213c1.125-0.709-1.115-1.524-2.263-0.802C42.887,68.119,45.127,68.935,46.275,68.213z"/>
	<path fill="#DE4173" d="M55.266,67.967c1.125-0.708-1.115-1.523-2.264-0.801C51.877,67.873,54.117,68.689,55.266,67.967z"/>
	<path fill="#DE4173" d="M47.902,66.298c-0.42-0.21-0.67-0.524-0.723-0.854c-0.525,0.398-0.61,0.928,0.23,1.35
		c0.973,0.488,2.352,0.639,3.331,0.022c0.783-0.493,0.865-0.886,0.426-1.267c-0.068,0.237-0.246,0.467-0.543,0.654
		C49.895,66.662,48.696,66.696,47.902,66.298z"/>
	<path fill="#DE4173" d="M43.862,68.795c-0.42-0.211-0.67-0.524-0.723-0.855c-0.525,0.398-0.61,0.928,0.229,1.351
		c0.973,0.487,2.352,0.64,3.332,0.022c0.784-0.493,0.865-0.887,0.426-1.268c-0.068,0.238-0.246,0.469-0.544,0.654
		C45.854,69.158,44.655,69.193,43.862,68.795z"/>
	<path fill="#DE4173" d="M50.316,65.715c1.125-0.707-1.115-1.522-2.263-0.801C46.928,65.623,49.167,66.438,50.316,65.715z"/>
	<path fill="#DE4173" d="M51.943,63.802c-0.42-0.212-0.67-0.524-0.724-0.854c-0.524,0.398-0.61,0.928,0.229,1.35
		c0.973,0.488,2.352,0.639,3.332,0.022c0.783-0.493,0.864-0.886,0.426-1.268c-0.069,0.237-0.247,0.468-0.545,0.655
		C53.936,64.166,52.736,64.199,51.943,63.802z"/>
	<path fill="#DE4173" d="M67.387,60.478c1.125-0.708-1.114-1.524-2.263-0.802C63.999,60.385,66.238,61.2,67.387,60.478z"/>
	<path fill="#DE4173" d="M41.325,65.961c1.125-0.707-1.114-1.523-2.262-0.801C37.938,65.868,40.177,66.684,41.325,65.961z"/>
	<path fill="#DE4173" d="M38.912,66.543c-0.419-0.211-0.67-0.523-0.723-0.854c-0.525,0.397-0.61,0.928,0.229,1.35
		c0.973,0.487,2.352,0.639,3.332,0.021c0.784-0.492,0.865-0.885,0.426-1.267c-0.068,0.238-0.246,0.468-0.544,0.655
		C40.904,66.907,39.706,66.941,38.912,66.543z"/>
	<path fill="#DE4173" d="M42.953,64.047c-0.419-0.211-0.67-0.524-0.723-0.855c-0.524,0.398-0.61,0.93,0.23,1.351
		c0.973,0.487,2.352,0.64,3.332,0.022c0.784-0.492,0.864-0.887,0.425-1.268c-0.068,0.238-0.246,0.468-0.544,0.655
		C44.945,64.411,43.746,64.445,42.953,64.047z"/>
	<path fill="#DE4173" d="M34.872,69.04c-0.42-0.211-0.67-0.524-0.723-0.854c-0.524,0.397-0.61,0.928,0.23,1.35
		c0.973,0.488,2.351,0.64,3.331,0.021c0.784-0.492,0.865-0.885,0.426-1.267c-0.068,0.238-0.246,0.468-0.544,0.655
		C36.864,69.404,35.666,69.438,34.872,69.04z"/>
	<path fill="#DE4173" d="M33.244,70.955c1.125-0.709-1.114-1.523-2.262-0.802C29.857,70.861,32.096,71.677,33.244,70.955z"/>
	<path fill="#DE4173" d="M45.366,63.465c1.125-0.708-1.114-1.523-2.262-0.801C41.979,63.371,44.218,64.188,45.366,63.465z"/>
	<path fill="#DE4173" d="M56.893,66.053c-0.42-0.211-0.67-0.525-0.723-0.855c-0.525,0.398-0.609,0.929,0.229,1.35
		c0.974,0.488,2.352,0.64,3.331,0.023c0.785-0.493,0.865-0.886,0.426-1.268c-0.068,0.238-0.246,0.469-0.543,0.654
		C58.886,66.417,57.687,66.451,56.893,66.053z"/>
	<path fill="#DE4173" d="M54.581,57.053c0.974,0.488,2.353,0.639,3.331,0.022c0.785-0.492,0.865-0.886,0.426-1.268
		c-0.067,0.238-0.246,0.468-0.544,0.655c-0.728,0.458-1.927,0.492-2.72,0.094c-0.42-0.211-0.67-0.525-0.723-0.855
		C53.827,56.101,53.741,56.631,54.581,57.053z"/>
	<path fill="#DE4173" d="M53.447,58.473c1.125-0.709-1.115-1.524-2.263-0.803C50.059,58.379,52.299,59.194,53.447,58.473z"/>
	<path fill="#DE4173" d="M57.488,55.976c1.125-0.708-1.115-1.524-2.264-0.802C54.1,55.882,56.34,56.697,57.488,55.976z"/>
	<path fill="#DE4173" d="M49.406,60.968c1.125-0.708-1.114-1.522-2.262-0.802C46.019,60.875,48.258,61.691,49.406,60.968z"/>
	<path fill="#DE4173" d="M46.993,61.551c-0.419-0.211-0.67-0.525-0.723-0.855c-0.524,0.398-0.61,0.928,0.23,1.35
		c0.973,0.489,2.352,0.641,3.332,0.023c0.784-0.492,0.866-0.887,0.426-1.268c-0.069,0.238-0.247,0.467-0.544,0.655
		C48.986,61.914,47.787,61.949,46.993,61.551z"/>
	<path fill="#DE4173" d="M51.033,59.055c-0.418-0.212-0.669-0.525-0.723-0.855c-0.524,0.398-0.61,0.928,0.23,1.35
		c0.973,0.488,2.352,0.64,3.33,0.023c0.785-0.493,0.865-0.887,0.427-1.268c-0.069,0.238-0.247,0.467-0.544,0.654
		C53.026,59.418,51.828,59.453,51.033,59.055z"/>
	<path fill="#DE4173" d="M37.285,68.457c1.125-0.708-1.115-1.522-2.263-0.801C33.897,68.365,36.137,69.181,37.285,68.457z"/>
	<path fill="#DE4173" d="M61.842,68.304c-0.419-0.211-0.67-0.525-0.723-0.854c-0.524,0.397-0.609,0.928,0.23,1.35
		c0.973,0.488,2.351,0.639,3.33,0.022c0.784-0.493,0.865-0.886,0.426-1.268c-0.068,0.238-0.246,0.468-0.544,0.654
		C63.835,68.668,62.636,68.703,61.842,68.304z"/>
	<path fill="#DE4173" d="M60.215,70.219c1.125-0.709-1.115-1.523-2.263-0.802C56.827,70.125,59.066,70.941,60.215,70.219z"/>
	<path fill="#DE4173" d="M64.48,61.555c0.973,0.488,2.352,0.64,3.332,0.023c0.783-0.493,0.864-0.887,0.425-1.269
		c-0.067,0.239-0.245,0.468-0.544,0.655c-0.728,0.458-1.926,0.492-2.721,0.094c-0.42-0.211-0.67-0.525-0.723-0.854
		C63.726,60.604,63.641,61.133,64.48,61.555z"/>
	<path fill="#DE4173" d="M60.934,63.557c-0.42-0.211-0.67-0.525-0.724-0.855c-0.524,0.397-0.61,0.928,0.229,1.35
		c0.974,0.488,2.352,0.64,3.332,0.023c0.783-0.493,0.864-0.887,0.426-1.268c-0.068,0.238-0.246,0.468-0.544,0.654
		C62.926,63.92,61.727,63.954,60.934,63.557z"/>
	<path fill="#DE4173" d="M63.346,62.975c1.125-0.709-1.113-1.524-2.262-0.802C59.959,62.881,62.199,63.697,63.346,62.975z"/>
	<path fill="#DE4173" d="M64.256,67.722c1.125-0.709-1.115-1.524-2.263-0.802C60.867,67.627,63.107,68.444,64.256,67.722z"/>
	<path fill="#DE4173" d="M72.336,62.729c1.125-0.707-1.115-1.523-2.263-0.801C68.948,62.635,71.188,63.451,72.336,62.729z"/>
	<path fill="#DE4173" d="M59.306,65.471c1.124-0.708-1.114-1.523-2.263-0.802C55.917,65.377,58.158,66.193,59.306,65.471z"/>
	<path fill="#DE4173" d="M69.43,63.806c0.975,0.487,2.352,0.64,3.332,0.022c0.783-0.492,0.865-0.885,0.426-1.268
		c-0.068,0.238-0.247,0.469-0.544,0.655c-0.728,0.458-1.927,0.492-2.721,0.094c-0.419-0.211-0.67-0.523-0.724-0.854
		C68.676,62.854,68.591,63.384,69.43,63.806z"/>
	<path fill="#DE4173" d="M65.883,65.807c-0.42-0.211-0.671-0.524-0.724-0.854c-0.524,0.398-0.61,0.929,0.229,1.35
		c0.974,0.489,2.352,0.64,3.332,0.023c0.784-0.493,0.864-0.886,0.426-1.268c-0.068,0.239-0.246,0.468-0.545,0.655
		C67.875,66.172,66.676,66.205,65.883,65.807z"/>
	<path fill="#DE4173" d="M68.296,65.225c1.125-0.707-1.114-1.523-2.263-0.801C64.908,65.132,67.148,65.947,68.296,65.225z"/>
	<path fill="#DE4173" d="M34.319,76.269v0.002c-0.734,0.38-1.834,0.388-2.579,0.014c-0.009-0.005-0.018-0.009-0.028-0.015H31.71
		c-0.402-0.211-0.642-0.518-0.693-0.841c-0.327,0.248-0.483,0.548-0.352,0.841l0,0c0.08,0.177,0.266,0.351,0.582,0.51
		c0.973,0.488,2.352,0.639,3.332,0.021c0.304-0.191,0.503-0.368,0.606-0.533v-0.001c0.162-0.262,0.088-0.5-0.18-0.733
		c-0.069,0.239-0.247,0.469-0.544,0.654C34.415,76.219,34.368,76.245,34.319,76.269z"/>
	<path fill="#DE4173" d="M90.783,68.39L54.826,50.344c-0.461-0.239-0.849-0.375-1.188-0.436l0.002-0.131L54.851,49
		c0.929-0.595,1.684-2.035,1.684-3.209V2.262c0-0.691-0.255-1.117-0.644-1.238c-1.275-0.515-2.451-1.168-3.867-0.46l-0.67,0.378
		L11.88,26.249c-1.031,0.662-1.838,2.21-1.838,3.49v41.869v1.666c0.065,1.724,0.924,1.771,2.205,2.31l0.401,0.159
		c-0.03,0.154-0.063,0.332-0.097,0.527h0c-0.07,0.404-0.142,0.881-0.192,1.369c-0.08,0.772,0.458,1.404,0.382,2.189L12.7,80.207
		c-0.027,0.34,0.051,0.641,0.376,0.797l13.806,6.925l22.157,11.114c1.081,0.543,2.72,0.494,3.707-0.127l17.462-10.99l18.525-11.659
		l0,0l1.752-1.103c0.635-0.399,0.693-1.957,0.754-2.617c0.182-0.189,0.16-0.57,0.16-0.57l0.021-0.375l0.125-2.133
		c0.011-0.057,0.015-0.113,0.01-0.17C91.533,68.965,91.277,68.638,90.783,68.39z M75.123,77.473L64.71,84.052
		c-0.388,0.204-0.562,0.334-1.207-0.009l-9.469-5.006c-0.392-0.211-0.418-0.488-0.185-0.657l10.561-6.646
		c0.398-0.22,0.824,0.062,0.966,0.137c0,0,9.82,5.224,9.842,5.24C75.332,77.196,75.347,77.334,75.123,77.473z M69.574,61.58
		c0.057-0.049,0.121-0.096,0.192-0.141c0.728-0.458,1.927-0.493,2.72-0.094c0.219,0.109,0.391,0.246,0.513,0.398
		c1.124,0.578,1.583,1.62,0.069,2.573c-1.324,0.833-3.302,0.518-4.273-0.245c0.062,0.053,0.117,0.109,0.164,0.169
		c1.124,0.578,1.583,1.62,0.069,2.573c-1.325,0.833-3.303,0.518-4.273-0.245c0.062,0.054,0.116,0.11,0.163,0.169
		c1.125,0.578,1.584,1.621,0.07,2.573c-1.326,0.833-3.303,0.518-4.273-0.245c0.062,0.053,0.115,0.11,0.163,0.169
		c1.044,0.537,1.515,1.478,0.36,2.37v0.002c-0.088,0.066-0.184,0.134-0.291,0.201c-1.299,0.816-3.226,0.529-4.215-0.203h-0.003
		c-0.021-0.014-0.038-0.027-0.056-0.042c0.016,0.013,0.031,0.027,0.045,0.042l0.003,0.001c0.042,0.04,0.081,0.083,0.115,0.125
		c1.124,0.579,1.584,1.622,0.07,2.573c-1.325,0.834-3.303,0.519-4.273-0.245c0.062,0.054,0.116,0.11,0.163,0.169
		c0.918,0.473,1.393,1.254,0.713,2.041v0.002c-0.153,0.178-0.365,0.355-0.643,0.53c-1.325,0.834-3.303,0.519-4.273-0.245
		c0.062,0.054,0.116,0.11,0.163,0.169c1.125,0.579,1.584,1.621,0.07,2.573c-1.325,0.834-3.303,0.518-4.273-0.245
		c0.062,0.054,0.116,0.11,0.163,0.169c1.124,0.579,1.583,1.621,0.069,2.573c-1.325,0.834-3.303,0.519-4.273-0.245
		c0.062,0.053,0.116,0.109,0.163,0.169c1.125,0.579,1.584,1.621,0.07,2.573c-2.366,1.488-6.815-0.689-3.888-2.53
		c0.125-0.079,0.257-0.147,0.393-0.207c0.058-0.049,0.122-0.096,0.193-0.14c0.728-0.459,1.926-0.493,2.72-0.096
		c0.104,0.052,0.199,0.111,0.281,0.176c-0.702-0.597-0.797-1.443,0.453-2.23c0.125-0.078,0.257-0.146,0.393-0.206
		c0.058-0.05,0.122-0.097,0.193-0.141c0.727-0.458,1.926-0.493,2.72-0.095c0.104,0.052,0.198,0.111,0.281,0.176
		c-0.702-0.598-0.796-1.445,0.452-2.23c0.126-0.079,0.258-0.148,0.394-0.207c0.058-0.049,0.122-0.096,0.193-0.141
		c0.091-0.057,0.189-0.107,0.293-0.15v-0.001c0.687-0.291,1.62-0.292,2.307,0.001c0.041,0.019,0.082,0.037,0.121,0.057
		c0.104,0.053,0.198,0.111,0.282,0.176c-0.086-0.074-0.164-0.15-0.23-0.232h-0.001c-0.475-0.573-0.412-1.309,0.683-1.998
		c0.126-0.079,0.257-0.147,0.394-0.207c0.058-0.049,0.122-0.096,0.193-0.141c0.728-0.457,1.927-0.492,2.72-0.094
		c0.105,0.051,0.198,0.109,0.282,0.175c-0.702-0.597-0.798-1.444,0.452-2.229c0.098-0.062,0.201-0.117,0.307-0.168h0.001
		c0.027-0.014,0.056-0.026,0.085-0.039c0.058-0.049,0.123-0.096,0.193-0.141c0.728-0.459,1.927-0.492,2.721-0.094
		c0.104,0.052,0.198,0.11,0.281,0.175c-0.702-0.598-0.797-1.444,0.452-2.229c0.125-0.08,0.257-0.148,0.394-0.207
		c0.057-0.05,0.122-0.096,0.193-0.141c0.727-0.459,1.926-0.493,2.719-0.095c0.105,0.052,0.199,0.111,0.283,0.175
		c-0.703-0.596-0.798-1.443,0.451-2.229c0.125-0.079,0.258-0.148,0.394-0.207c0.058-0.049,0.122-0.096,0.193-0.14
		c0.728-0.459,1.927-0.493,2.72-0.096c0.105,0.053,0.198,0.111,0.282,0.176c-0.702-0.597-0.798-1.443,0.452-2.229
		c0.125-0.079,0.257-0.148,0.393-0.207c0.059-0.05,0.122-0.097,0.193-0.141c0.728-0.458,1.927-0.493,2.721-0.095
		c0.104,0.053,0.198,0.111,0.281,0.176c-0.702-0.597-0.797-1.445,0.452-2.229C69.307,61.708,69.438,61.64,69.574,61.58z
		 M64.624,59.328c0.058-0.049,0.122-0.096,0.193-0.141c0.728-0.457,1.927-0.492,2.72-0.094c0.218,0.109,0.391,0.246,0.512,0.398
		c1.125,0.58,1.584,1.621,0.07,2.574c-1.324,0.833-3.303,0.518-4.273-0.245c0.062,0.054,0.116,0.11,0.164,0.169
		c1.125,0.578,1.583,1.621,0.069,2.573c-1.325,0.833-3.304,0.518-4.273-0.245c0.062,0.053,0.116,0.109,0.163,0.168
		c1.124,0.579,1.584,1.621,0.069,2.573c-1.325,0.835-3.302,0.519-4.272-0.244c0.061,0.053,0.115,0.11,0.163,0.169
		c1.124,0.578,1.583,1.62,0.069,2.573c-1.324,0.833-3.303,0.518-4.273-0.245c0.062,0.053,0.115,0.109,0.162,0.169
		c0.949,0.487,1.425,1.306,0.641,2.124h-0.001c-0.146,0.15-0.333,0.301-0.569,0.449c-1.324,0.833-3.303,0.518-4.273-0.245
		c0.062,0.054,0.116,0.11,0.163,0.169c1.125,0.578,1.583,1.621,0.07,2.573c-1.325,0.833-3.303,0.518-4.273-0.245
		c0.061,0.053,0.115,0.109,0.163,0.169c0.822,0.423,1.289,1.094,0.888,1.796l0,0c-0.147,0.259-0.412,0.521-0.818,0.776
		c-1.325,0.835-3.303,0.519-4.273-0.245c0.062,0.054,0.116,0.111,0.163,0.17c1.124,0.578,1.583,1.621,0.07,2.572
		c-1.325,0.834-3.303,0.519-4.273-0.245c0.062,0.054,0.116,0.11,0.163,0.169c1.125,0.579,1.583,1.621,0.07,2.573
		c-2.366,1.489-6.815-0.688-3.889-2.53c0.125-0.079,0.257-0.146,0.394-0.206c0.058-0.05,0.122-0.097,0.193-0.141
		c0.728-0.458,1.927-0.493,2.721-0.095c0.104,0.052,0.198,0.11,0.282,0.176c-0.703-0.598-0.797-1.445,0.452-2.23
		c0.126-0.079,0.257-0.147,0.394-0.207c0.057-0.049,0.122-0.096,0.193-0.141c0.728-0.458,1.927-0.492,2.72-0.094
		c0.105,0.052,0.199,0.11,0.282,0.175c-0.171-0.146-0.306-0.306-0.395-0.477v-0.001c-0.273-0.529-0.098-1.158,0.847-1.753
		c0.125-0.079,0.257-0.147,0.394-0.207c0.058-0.05,0.122-0.096,0.193-0.141c0.728-0.458,1.926-0.492,2.72-0.094
		c0.105,0.052,0.199,0.11,0.282,0.175c-0.702-0.597-0.797-1.443,0.452-2.23c0.125-0.078,0.257-0.146,0.393-0.207
		c0.058-0.048,0.122-0.095,0.193-0.14c0.036-0.022,0.072-0.044,0.11-0.065h0.001c0.734-0.395,1.854-0.407,2.609-0.029
		c0.02,0.01,0.039,0.021,0.058,0.029h0.068c-0.553-0.586-0.541-1.36,0.608-2.083c0.126-0.079,0.257-0.148,0.394-0.207
		c0.058-0.05,0.122-0.097,0.193-0.142c0.728-0.457,1.926-0.492,2.72-0.094c0.104,0.053,0.198,0.111,0.282,0.176
		c-0.703-0.597-0.797-1.444,0.451-2.23c0.126-0.08,0.258-0.147,0.394-0.207c0.058-0.049,0.122-0.096,0.192-0.141
		c0.729-0.457,1.928-0.492,2.721-0.094c0.105,0.052,0.199,0.111,0.283,0.176c-0.703-0.598-0.798-1.445,0.451-2.23
		c0.125-0.079,0.257-0.148,0.394-0.207c0.058-0.049,0.122-0.096,0.193-0.141c0.728-0.458,1.927-0.492,2.72-0.094
		c0.104,0.052,0.199,0.11,0.281,0.174c-0.701-0.596-0.797-1.443,0.453-2.229c0.125-0.08,0.257-0.148,0.393-0.207
		c0.058-0.05,0.123-0.097,0.193-0.141c0.727-0.458,1.927-0.492,2.721-0.094c0.104,0.051,0.198,0.111,0.281,0.175
		c-0.702-0.597-0.797-1.444,0.451-2.229C64.356,59.457,64.488,59.387,64.624,59.328z M59.674,57.078
		c0.058-0.05,0.123-0.097,0.193-0.141c0.729-0.458,1.928-0.492,2.721-0.095c0.217,0.109,0.39,0.245,0.512,0.399
		c1.124,0.578,1.584,1.62,0.07,2.572c-1.325,0.834-3.304,0.518-4.273-0.244c0.061,0.053,0.115,0.109,0.162,0.168
		c1.125,0.579,1.584,1.621,0.07,2.574c-1.324,0.833-3.303,0.518-4.273-0.246c0.062,0.054,0.116,0.11,0.164,0.169
		c1.124,0.579,1.582,1.621,0.068,2.573c-1.324,0.834-3.303,0.518-4.272-0.244c0.062,0.053,0.116,0.109,0.163,0.168
		c1.125,0.58,1.584,1.621,0.07,2.573c-1.326,0.834-3.304,0.519-4.274-0.244c0.062,0.054,0.116,0.11,0.163,0.169
		c1.124,0.578,1.583,1.621,0.07,2.573c-1.325,0.833-3.303,0.518-4.273-0.245c0.062,0.053,0.116,0.109,0.163,0.168
		c0.854,0.44,1.324,1.146,0.838,1.88h-0.001c-0.154,0.231-0.404,0.465-0.768,0.694c-1.325,0.832-3.303,0.518-4.273-0.246
		c0.062,0.054,0.116,0.111,0.163,0.17c1.125,0.578,1.584,1.62,0.07,2.572c-1.325,0.834-3.303,0.52-4.273-0.244
		c0.062,0.053,0.116,0.109,0.163,0.168c0.726,0.374,1.174,0.939,0.994,1.551c-0.099,0.336-0.388,0.686-0.924,1.022
		c-1.325,0.834-3.303,0.519-4.273-0.245c0.062,0.054,0.116,0.11,0.163,0.169c1.124,0.579,1.583,1.622,0.07,2.573
		c-2.366,1.489-6.815-0.688-3.889-2.53c0.125-0.079,0.257-0.147,0.394-0.207c0.058-0.049,0.122-0.095,0.193-0.141
		c0.728-0.458,1.927-0.492,2.72-0.095c0.105,0.053,0.199,0.111,0.282,0.176c-0.251-0.213-0.425-0.459-0.487-0.721v-0.001
		c-0.112-0.473,0.136-1.003,0.938-1.507c0.125-0.08,0.257-0.148,0.394-0.208c0.058-0.049,0.122-0.096,0.193-0.141
		c0.728-0.458,1.927-0.492,2.72-0.095c0.104,0.053,0.199,0.111,0.282,0.176c-0.702-0.598-0.797-1.445,0.452-2.23
		c0.125-0.079,0.257-0.146,0.394-0.207c0.057-0.049,0.122-0.096,0.193-0.141c0.232-0.145,0.512-0.248,0.811-0.309h0.004
		c0.408-0.081,0.853-0.081,1.261-0.001v0.001c0.23,0.046,0.449,0.117,0.644,0.215c0.104,0.053,0.199,0.111,0.282,0.176
		c-0.143-0.122-0.26-0.254-0.346-0.392c-0.339-0.547-0.197-1.212,0.798-1.839c0.126-0.079,0.257-0.147,0.394-0.207
		c0.058-0.049,0.122-0.096,0.193-0.141c0.728-0.458,1.927-0.492,2.721-0.094c0.104,0.053,0.198,0.111,0.282,0.176
		c-0.703-0.598-0.797-1.444,0.451-2.23c0.126-0.079,0.257-0.148,0.394-0.207c0.058-0.049,0.122-0.096,0.193-0.141
		c0.728-0.457,1.927-0.492,2.721-0.094c0.104,0.052,0.198,0.11,0.282,0.176c-0.703-0.598-0.797-1.446,0.452-2.23
		c0.126-0.08,0.257-0.148,0.394-0.207c0.058-0.05,0.122-0.096,0.193-0.141c0.728-0.458,1.927-0.492,2.72-0.095
		c0.105,0.053,0.198,0.112,0.282,0.176c-0.702-0.597-0.797-1.444,0.452-2.229c0.125-0.08,0.257-0.148,0.394-0.208
		c0.058-0.049,0.122-0.095,0.193-0.14c0.727-0.458,1.926-0.492,2.72-0.096c0.104,0.053,0.198,0.112,0.282,0.176
		c-0.703-0.596-0.797-1.443,0.451-2.229c0.126-0.08,0.258-0.148,0.394-0.208c0.058-0.049,0.122-0.096,0.193-0.141
		c0.728-0.458,1.927-0.492,2.72-0.095c0.105,0.053,0.199,0.111,0.282,0.176c-0.702-0.596-0.796-1.444,0.452-2.229
		C59.407,57.205,59.538,57.137,59.674,57.078z M54.331,55.033c0.126-0.079,0.258-0.146,0.394-0.207
		c0.058-0.049,0.122-0.096,0.193-0.141c0.727-0.457,1.926-0.491,2.72-0.094c0.218,0.109,0.39,0.246,0.512,0.398
		c1.125,0.579,1.584,1.621,0.07,2.573c-1.325,0.835-3.303,0.519-4.272-0.244c0.061,0.053,0.115,0.109,0.162,0.168
		c1.124,0.579,1.584,1.622,0.07,2.573c-1.326,0.834-3.303,0.518-4.274-0.244c0.062,0.053,0.117,0.109,0.164,0.169
		c1.125,0.578,1.583,1.62,0.07,2.573c-1.325,0.832-3.303,0.518-4.273-0.245c0.062,0.053,0.116,0.109,0.163,0.168
		c1.125,0.579,1.583,1.621,0.07,2.573c-1.325,0.834-3.303,0.518-4.273-0.244c0.062,0.053,0.116,0.109,0.163,0.168
		c1.125,0.579,1.583,1.621,0.07,2.574c-1.325,0.832-3.303,0.517-4.273-0.245c0.061,0.053,0.116,0.11,0.163,0.169
		c1.124,0.578,1.583,1.62,0.07,2.572c-1.325,0.834-3.303,0.518-4.274-0.244c0.062,0.053,0.116,0.109,0.164,0.168
		c0.757,0.39,1.213,0.991,0.966,1.634h-0.001c-0.12,0.31-0.403,0.63-0.896,0.939c-1.325,0.834-3.303,0.519-4.274-0.244
		c0.062,0.052,0.116,0.109,0.164,0.169c1.124,0.578,1.583,1.621,0.069,2.572c-1.325,0.834-3.303,0.519-4.273-0.244
		c0.061,0.053,0.116,0.109,0.163,0.168c0.627,0.324,1.048,0.791,1.034,1.308c-0.012,0.407-0.295,0.846-0.964,1.266
		c-1.826,1.149-4.894,0.114-4.852-1.265c0.012-0.408,0.296-0.846,0.963-1.265c0.126-0.079,0.258-0.148,0.394-0.207
		c0.058-0.05,0.123-0.096,0.193-0.142c0.728-0.457,1.927-0.492,2.721-0.094c0.105,0.053,0.198,0.111,0.282,0.176
		c-0.702-0.597-0.797-1.444,0.452-2.23c0.126-0.08,0.257-0.147,0.394-0.207c0.058-0.049,0.122-0.096,0.193-0.141
		c0.727-0.458,1.926-0.492,2.72-0.094c0.104,0.052,0.199,0.11,0.282,0.176c-0.224-0.191-0.387-0.408-0.463-0.638v-0.002
		c-0.163-0.493,0.065-1.058,0.915-1.591c0.125-0.08,0.257-0.148,0.394-0.208c0.057-0.05,0.122-0.096,0.193-0.141
		c0.728-0.458,1.927-0.492,2.72-0.094c0.105,0.052,0.199,0.11,0.282,0.175c-0.703-0.596-0.797-1.443,0.452-2.229
		c0.125-0.079,0.257-0.147,0.394-0.207c0.058-0.05,0.122-0.096,0.193-0.141c0.728-0.458,1.926-0.493,2.72-0.095
		c0.105,0.053,0.199,0.111,0.282,0.176c-0.703-0.597-0.797-1.444,0.452-2.229c0.125-0.08,0.257-0.148,0.394-0.207
		c0.057-0.05,0.122-0.096,0.193-0.141c0.728-0.459,1.926-0.493,2.721-0.095c0.104,0.053,0.198,0.111,0.282,0.176
		c-0.703-0.598-0.797-1.445,0.452-2.229c0.125-0.079,0.257-0.148,0.394-0.208c0.057-0.049,0.122-0.096,0.193-0.141
		c0.728-0.457,1.926-0.492,2.72-0.095c0.104,0.053,0.198,0.111,0.282,0.176c-0.703-0.596-0.797-1.444,0.452-2.229
		c0.125-0.08,0.257-0.147,0.394-0.207c0.057-0.049,0.122-0.096,0.193-0.141c0.728-0.457,1.927-0.492,2.72-0.095
		c0.105,0.052,0.198,0.111,0.282,0.176c-0.703-0.597-0.797-1.444,0.452-2.229c0.125-0.08,0.258-0.148,0.394-0.207
		c0.058-0.05,0.122-0.096,0.192-0.141c0.729-0.458,1.927-0.492,2.721-0.096c0.104,0.054,0.198,0.113,0.281,0.177
		C53.176,56.666,53.082,55.82,54.331,55.033z M54.039,42.646c0,1.31-0.822,2.89-1.883,3.571L17.206,68.648
		c-1.247,0.801-2.298,0.052-2.298-1.381V33.788c0-1.31,0.823-2.89,1.883-3.57L51.74,7.786c1.246-0.8,2.299-0.052,2.299,1.381V42.646
		L54.039,42.646z M91.319,69.598c0,0-0.015,0.041-0.062,0.115c-0.411,0.668-1.787,1.461-2.418,1.843L52.8,94.223
		c-0.866,0.545-2.359,0.596-3.329,0.109l-12.76-6.404l-23.2-11.644c-0.009-0.005-0.019-0.009-0.027-0.014
		c-0.078-0.04-0.153-0.084-0.224-0.131c-0.313-0.273-0.294-0.431-0.321-0.703c-0.008-0.083-0.117-0.171-0.298-0.353
		c-0.143-0.215-0.226-0.521-0.226-0.916V30.639c0-1.175,0.757-2.613,1.685-3.209L54.438,1.538l0.255-0.162l0.568-0.355
		c0.383-0.241,0.744,0.333,0.36,0.574l-0.666,0.418L54.8,2.111l-40.334,25.89c-0.719,0.462-1.372,1.677-1.372,2.638v43.529
		c0,0.705,0.204,0.697,0.59,0.449l37.493-24.063l1.36-0.838c0.384-0.239,0.742,0.337,0.358,0.576l-1.604,0.996l-37.24,23.9
		c-0.082,0.053-0.163,0.096-0.243,0.133l-0.13,0.053l-0.205,0.082c0.096,0.086,0.195,0.148,0.342,0.223l1.18,0.592l23.228,11.658
		l11.552,5.797c0.771,0.387,2.012,0.334,2.664-0.076l9.093-5.723h0.001l18.529-11.66l0,0l9.501-5.979l0.317-0.21
		c0.246-0.164,0.632-0.448,0.8-0.72C90.862,68.922,91.49,69.179,91.319,69.598z"/>
</g>
</svg>
