<?xml version="1.0" encoding="utf-8"?>
<!-- Generator: Adobe Illustrator 16.0.0, SVG Export Plug-In . SVG Version: 6.00 Build 0)  -->
<!DOCTYPE svg PUBLIC "-//W3C//DTD SVG 1.1//EN" "http://www.w3.org/Graphics/SVG/1.1/DTD/svg11.dtd">
<svg version="1.1" id="Layer_1" xmlns="http://www.w3.org/2000/svg" xmlns:xlink="http://www.w3.org/1999/xlink" x="0px" y="0px"
	 width="90px" height="90px" viewBox="0 0 90 90" enable-background="new 0 0 90 90" xml:space="preserve">
<polygon fill="#DE4173" points="6.125,72.421 58.544,88.523 58.544,24.372 6.125,8.269 "/>
<polygon fill="#DE4173" points="79.818,15.77 79.868,15.755 29.615,1.453 10.328,6.318 60.102,21.609 "/>
<path fill="#DE4173" d="M61.643,78.738l22.232-6.582V17.801l-22.232,6.584V78.738z M73.811,69.257c-1.174,0-2.125-1.19-2.125-2.659
	c0-1.468,0.951-2.658,2.125-2.658c1.172,0,2.123,1.19,2.123,2.658C75.934,68.066,74.982,69.257,73.811,69.257z M64.898,32.121
	l16.336-4.41v7.117l-16.336,4.409V32.121z M64.898,41.292l16.336-4.41v7.116l-16.336,4.409V41.292z M64.898,50.463l16.336-4.411
	v7.116l-16.336,4.411V50.463z"/>
<polygon fill="#DE4173" points="83.875,74.893 61.643,81.477 61.643,88.547 83.875,81.963 "/>
</svg>
